{"accessors":[{"bufferView":0,"componentType":5125,"count":4644,"max":[1755.0],"min":[0.0],"type":"SCALAR"},{"bufferView":1,"componentType":5126,"count":1756,"max":[0.054999999701976779,0.37042832374572756,0.02500000037252903],"min":[-0.03500000014901161,-0.08500000089406967,-3.469446951953614e-18],"type":"VEC3"},{"bufferView":2,"componentType":5126,"count":1756,"max":[1.0,1.0,1.0],"min":[-1.0,-1.0,-1.0],"type":"VEC3"},{"bufferView":3,"componentType":5126,"count":1756,"max":[0.38427287340164187,1.0],"min":[0.0,0.6157271265983582],"type":"VEC2"},{"bufferView":4,"componentType":5125,"count":1440,"max":[651.0],"min":[0.0],"type":"SCALAR"},{"bufferView":5,"componentType":5126,"count":652,"max":[0.05000000074505806,0.05000000074505806,0.03999999910593033],"min":[-0.05000000074505806,-0.05000000074505806,-1.3877787807814458e-17],"type":"VEC3"},{"bufferView":6,"componentType":5126,"count":652,"max":[1.0,1.0,1.0],"min":[-1.0,-1.0,-1.0],"type":"VEC3"},{"bufferView":7,"componentType":5126,"count":652,"max":[1.0,1.0],"min":[0.0,0.0],"type":"VEC2"},{"bufferView":8,"componentType":5125,"count":4302,"max":[1083.0],"min":[0.0],"type":"SCALAR"},{"bufferView":9,"componentType":5126,"count":1084,"max":[0.06445006281137467,0.06499991565942764,0.03999999910593033],"min":[-0.020088976249098779,0.00843736995011568,-3.469446951953614e-18],"type":"VEC3"},{"bufferView":10,"componentType":5126,"count":1084,"max":[0.991539478302002,0.9999986886978149,0.7827417850494385],"min":[-1.0,-1.0,-0.7827417850494385],"type":"VEC3"},{"bufferView":11,"componentType":5126,"count":1084,"max":[1.5881214141845704,1.0],"min":[0.0,-0.5881214141845703],"type":"VEC2"},{"bufferView":12,"componentType":5125,"count":4212,"max":[1430.0],"min":[0.0],"type":"SCALAR"},{"bufferView":13,"componentType":5126,"count":1431,"max":[0.005031003151088953,0.19721627235412599,0.04500000178813934],"min":[-0.08741738647222519,0.0,-0.004999999888241291],"type":"VEC3"},{"bufferView":14,"componentType":5126,"count":1431,"max":[0.9999994039535523,0.9973142743110657,1.0],"min":[-0.999996542930603,-0.953444242477417,-1.0],"type":"VEC3"},{"bufferView":15,"componentType":5126,"count":1431,"max":[2.0783698558807375,1.0],"min":[1.1537270338428315e-16,-1.0783698558807374],"type":"VEC2"}],"asset":{"generator":"SimLab GLTF","version":"2.0"},"bufferViews":[{"buffer":0,"byteLength":18576,"target":34963},{"buffer":0,"byteLength":21072,"byteOffset":18576,"byteStride":12,"target":34962},{"buffer":0,"byteLength":21072,"byteOffset":39648,"byteStride":12,"target":34962},{"buffer":0,"byteLength":14048,"byteOffset":60720,"byteStride":8,"target":34962},{"buffer":0,"byteLength":5760,"byteOffset":74768,"target":34963},{"buffer":0,"byteLength":7824,"byteOffset":80528,"byteStride":12,"target":34962},{"buffer":0,"byteLength":7824,"byteOffset":88352,"byteStride":12,"target":34962},{"buffer":0,"byteLength":5216,"byteOffset":96176,"byteStride":8,"target":34962},{"buffer":0,"byteLength":17208,"byteOffset":101392,"target":34963},{"buffer":0,"byteLength":13008,"byteOffset":118600,"byteStride":12,"target":34962},{"buffer":0,"byteLength":13008,"byteOffset":131608,"byteStride":12,"target":34962},{"buffer":0,"byteLength":8672,"byteOffset":144616,"byteStride":8,"target":34962},{"buffer":0,"byteLength":16848,"byteOffset":153288,"target":34963},{"buffer":0,"byteLength":17172,"byteOffset":170136,"byteStride":12,"target":34962},{"buffer":0,"byteLength":17172,"byteOffset":187308,"byteStride":12,"target":34962},{"buffer":0,"byteLength":11448,"byteOffset":204480,"byteStride":8,"target":34962}],"buffers":[{"byteLength":215928,"uri":"Craver.bin"}],"images":[{"mimeType":"image/jpeg","uri":"Textures/polished rosewood.jpg"},{"mimeType":"image/jpeg","uri":"Textures/galvanized.jpg"}],"materials":[{"name":"texture","alphaMode":"MASK","doubleSided":true,"pbrMetallicRoughness":{"baseColorTexture":{"index":0},"metallicFactor":0.0}},{"name":"Mtl","alphaMode":"MASK","doubleSided":true,"pbrMetallicRoughness":{"baseColorFactor":[0.6470588445663452,0.6196078658103943,0.5882353186607361,1.0],"metallicFactor":0.0}},{"name":"texture1","alphaMode":"MASK","doubleSided":true,"pbrMetallicRoughness":{"baseColorTexture":{"index":0},"metallicFactor":0.0}},{"name":"texture2","alphaMode":"MASK","doubleSided":true,"pbrMetallicRoughness":{"baseColorTexture":{"index":1},"metallicFactor":0.0}}],"meshes":[{"primitives":[{"attributes":{"NORMAL":2,"POSITION":1,"TEXCOORD_0":3},"indices":0,"material":0,"mode":4}]},{"primitives":[{"attributes":{"NORMAL":6,"POSITION":5,"TEXCOORD_0":7},"indices":4,"material":1,"mode":4}]},{"primitives":[{"attributes":{"NORMAL":10,"POSITION":9,"TEXCOORD_0":11},"indices":8,"material":2,"mode":4}]},{"primitives":[{"attributes":{"NORMAL":14,"POSITION":13,"TEXCOORD_0":15},"indices":12,"material":3,"mode":4}]}],"nodes":[{"children":[1,2,6,10,14],"matrix":[1.0,0.0,0.0,0.0,0.0,4.4896593387466768e-11,-1.0,0.0,0.0,1.0,4.4896593387466768e-11,0.0,0.0,0.0,0.0,1.0]},{"name":"Camera-1","rotation":[-0.7071067690849304,0.0,0.0,-0.7071067690849304],"translation":[0.1921895444393158,-2.41951322555542,0.28664717078208926]},{"name":"Handle-1","children":[3],"rotation":[-0.7071067690849304,0.0,0.0,-0.7071067690849304],"translation":[0.18218953907489777,-0.387427419424057,0.1724909394979477]},{"name":"Body_1","children":[5],"rotation":[0.0,0.0,0.0,-1.0]},{"mesh":0},{"children":[4]},{"name":"Wheel-1","children":[7],"rotation":[-0.5376613736152649,0.4592605531215668,0.5376613736152649,-0.4592605531215668],"translation":[0.2121892273426056,-0.39992743730545046,0.10249094665050507]},{"name":"Body_1","children":[9],"rotation":[0.0,0.0,0.0,-1.0]},{"mesh":1},{"children":[8]},{"name":"Cover-1","children":[11],"rotation":[0.7071067690849304,-1.9238922374421717e-17,0.7071067690849304,6.253672704591571e-17],"translation":[0.17226046323776246,-0.4039900600910187,0.10255956649780274]},{"name":"Body_1","children":[13],"rotation":[0.0,0.0,0.0,-1.0]},{"mesh":2},{"children":[12]},{"name":"Collector-1","children":[15],"rotation":[-0.6203937530517578,-0.33928102254867556,-0.6203937530517578,-0.33928102254867556],"translation":[0.17206914722919465,-0.2739187180995941,0.07754140347242356]},{"name":"Body_1","children":[17],"rotation":[0.0,0.0,0.0,-1.0]},{"mesh":3},{"children":[16]}],"samplers":[{"wrapS":10497,"wrapT":10497}],"scene":0,"scenes":[{"nodes":[0]}],"textures":[{"source":0},{"source":1}]}