{
  "accessors": [
    {
      "bufferView": 2,
      "componentType": 5126,
      "count": 9815,
      "max": [
        46.289817810058594,
        -38.77592086791992,
        58.160133361816406
      ],
      "min": [
        2.759571075439453,
        -75.95635223388672,
        13.712928771972656
      ],
      "type": "VEC3"
    },
    {
      "bufferView": 2,
      "byteOffset": 117780,
      "componentType": 5126,
      "count": 9815,
      "max": [
        0.9996022582054138,
        0.9992707371711731,
        0.9984753727912903
      ],
      "min": [
        -0.9987643361091614,
        -0.9999286532402039,
        -0.9994524717330933
      ],
      "type": "VEC3"
    },
    {
      "bufferView": 3,
      "componentType": 5126,
      "count": 9815,
      "max": [
        0.9999997615814209,
        0.9999998211860657,
        0.9999993443489075,
        1.0
      ],
      "min": [
        -1.0,
        -0.9999997615814209,
        -0.9999999403953552,
        -1.0
      ],
      "type": "VEC4"
    },
    {
      "bufferView": 1,
      "componentType": 5126,
      "count": 9815,
      "max": [
        0.9497690200805664,
        0.9772650003433228
      ],
      "min": [
        0.004999999888241291,
        0.004999999888241291
      ],
      "type": "VEC2"
    },
    {
      "bufferView": 0,
      "componentType": 5125,
      "count": 42915,
      "type": "SCALAR"
    },
    {
      "bufferView": 2,
      "byteOffset": 235560,
      "componentType": 5126,
      "count": 9441,
      "max": [
        42.6932258605957,
        -33.219505310058594,
        56.148624420166016
      ],
      "min": [
        1.6636450290679932,
        -75.10501098632813,
        4.039981842041016
      ],
      "type": "VEC3"
    },
    {
      "bufferView": 2,
      "byteOffset": 348852,
      "componentType": 5126,
      "count": 9441,
      "max": [
        0.9997968673706055,
        0.999920129776001,
        0.9999982118606567
      ],
      "min": [
        -0.9997657537460327,
        -0.9998296499252319,
        -0.9999982118606567
      ],
      "type": "VEC3"
    },
    {
      "bufferView": 3,
      "byteOffset": 157040,
      "componentType": 5126,
      "count": 9441,
      "max": [
        0.9999990463256836,
        1.0,
        0.9999977350234985,
        1.0
      ],
      "min": [
        -0.9999952912330627,
        -1.0,
        -0.9999994039535522,
        -1.0
      ],
      "type": "VEC4"
    },
    {
      "bufferView": 1,
      "byteOffset": 78520,
      "componentType": 5126,
      "count": 9441,
      "max": [
        0.9721270203590393,
        0.9950000047683716
      ],
      "min": [
        0.004999999888241291,
        0.004999999888241291
      ],
      "type": "VEC2"
    },
    {
      "bufferView": 0,
      "byteOffset": 171660,
      "componentType": 5125,
      "count": 44379,
      "type": "SCALAR"
    },
    {
      "bufferView": 2,
      "byteOffset": 462144,
      "componentType": 5126,
      "count": 9902,
      "max": [
        42.81344223022461,
        -24.490062713623047,
        60.847007751464844
      ],
      "min": [
        -0.19222800433635712,
        -75.22452545166016,
        4.203285217285156
      ],
      "type": "VEC3"
    },
    {
      "bufferView": 2,
      "byteOffset": 580968,
      "componentType": 5126,
      "count": 9902,
      "max": [
        0.9977126717567444,
        0.9990204572677612,
        0.9999982118606567
      ],
      "min": [
        -0.9999061226844788,
        -0.9990202188491821,
        -0.9999982118606567
      ],
      "type": "VEC3"
    },
    {
      "bufferView": 3,
      "byteOffset": 308096,
      "componentType": 5126,
      "count": 9902,
      "max": [
        0.9999944567680359,
        0.9999879002571106,
        0.9999995231628418,
        1.0
      ],
      "min": [
        -0.9999967217445374,
        -0.9999996423721313,
        -0.9999998807907104,
        -1.0
      ],
      "type": "VEC4"
    },
    {
      "bufferView": 1,
      "byteOffset": 154048,
      "componentType": 5126,
      "count": 9902,
      "max": [
        0.9852889776229858,
        0.9845409989356995
      ],
      "min": [
        0.004999999888241291,
        0.004999999888241291
      ],
      "type": "VEC2"
    },
    {
      "bufferView": 0,
      "byteOffset": 349176,
      "componentType": 5125,
      "count": 40302,
      "type": "SCALAR"
    },
    {
      "bufferView": 2,
      "byteOffset": 699792,
      "componentType": 5126,
      "count": 9927,
      "max": [
        42.778438568115234,
        -24.59159278869629,
        76.60845184326172
      ],
      "min": [
        -7.539608001708984,
        -75.18965911865234,
        4.1425089836120605
      ],
      "type": "VEC3"
    },
    {
      "bufferView": 2,
      "byteOffset": 818916,
      "componentType": 5126,
      "count": 9927,
      "max": [
        0.9999714493751526,
        0.9966607689857483,
        0.9935788512229919
      ],
      "min": [
        -0.9931825399398804,
        -0.9996041059494019,
        -0.9983534812927246
      ],
      "type": "VEC3"
    },
    {
      "bufferView": 3,
      "byteOffset": 466528,
      "componentType": 5126,
      "count": 9927,
      "max": [
        0.9999998211860657,
        0.9999986290931702,
        0.9999993443489075,
        1.0
      ],
      "min": [
        -0.9999953508377075,
        -0.9999974966049194,
        -0.9999994039535522,
        -1.0
      ],
      "type": "VEC4"
    },
    {
      "bufferView": 1,
      "byteOffset": 233264,
      "componentType": 5126,
      "count": 9927,
      "max": [
        0.9472860097885132,
        0.9744099974632263
      ],
      "min": [
        0.004999999888241291,
        0.004999999888241291
      ],
      "type": "VEC2"
    },
    {
      "bufferView": 0,
      "byteOffset": 510384,
      "componentType": 5125,
      "count": 31914,
      "type": "SCALAR"
    },
    {
      "bufferView": 2,
      "byteOffset": 938040,
      "componentType": 5126,
      "count": 3242,
      "max": [
        28.98520278930664,
        -24.245885848999023,
        76.5280990600586
      ],
      "min": [
        -6.823659896850586,
        -71.36222076416016,
        23.13187026977539
      ],
      "type": "VEC3"
    },
    {
      "bufferView": 2,
      "byteOffset": 976944,
      "componentType": 5126,
      "count": 3242,
      "max": [
        0.9995785355567932,
        0.9880083799362183,
        0.9935741424560547
      ],
      "min": [
        -0.9710543751716614,
        -0.9848135709762573,
        -0.9935721158981323
      ],
      "type": "VEC3"
    },
    {
      "bufferView": 3,
      "byteOffset": 625360,
      "componentType": 5126,
      "count": 3242,
      "max": [
        0.9999917149543762,
        0.9996484518051147,
        0.9999774694442749,
        1.0
      ],
      "min": [
        -0.9999915361404419,
        -0.9996479153633118,
        -0.999978244304657,
        -1.0
      ],
      "type": "VEC4"
    },
    {
      "bufferView": 1,
      "byteOffset": 312680,
      "componentType": 5126,
      "count": 3242,
      "max": [
        0.8965139985084534,
        0.9049580097198486
      ],
      "min": [
        0.004999999888241291,
        0.004999999888241291
      ],
      "type": "VEC2"
    },
    {
      "bufferView": 0,
      "byteOffset": 638040,
      "componentType": 5125,
      "count": 9216,
      "type": "SCALAR"
    }
  ],
  "asset": {
    "extras": {
      "author": "LLIypuk (https://sketchfab.com/LLIypuk)",
      "license": "CC-BY-4.0 (http://creativecommons.org/licenses/by/4.0/)",
      "source": "https://sketchfab.com/3d-models/fan-marmoka-87b4aecaf25a424a81f76d7c5da5b701",
      "title": "Fan_Marmok'a"
    },
    "generator": "Sketchfab-10.60.0",
    "version": "2.0"
  },
  "bufferViews": [
    {
      "buffer": 0,
      "byteLength": 674904,
      "name": "floatBufferViews",
      "target": 34963
    },
    {
      "buffer": 0,
      "byteLength": 338616,
      "byteOffset": 674904,
      "byteStride": 8,
      "name": "floatBufferViews",
      "target": 34962
    },
    {
      "buffer": 0,
      "byteLength": 1015848,
      "byteOffset": 1013520,
      "byteStride": 12,
      "name": "floatBufferViews",
      "target": 34962
    },
    {
      "buffer": 0,
      "byteLength": 677232,
      "byteOffset": 2029368,
      "byteStride": 16,
      "name": "floatBufferViews",
      "target": 34962
    }
  ],
  "buffers": [
    {
      "byteLength": 2706600,
      "uri": "scene.bin"
    }
  ],
  "images": [
    {
      "uri": "textures/default_baseColor.png"
    },
    {
      "uri": "textures/default_metallicRoughness.png"
    },
    {
      "uri": "textures/default_normal.png"
    }
  ],
  "materials": [
    {
      "doubleSided": true,
      "name": "default",
      "normalTexture": {
        "index": 2
      },
      "pbrMetallicRoughness": {
        "baseColorTexture": {
          "index": 0
        },
        "metallicRoughnessTexture": {
          "index": 1
        }
      }
    }
  ],
  "meshes": [
    {
      "name": "Object_0",
      "primitives": [
        {
          "attributes": {
            "NORMAL": 1,
            "POSITION": 0,
            "TANGENT": 2,
            "TEXCOORD_0": 3
          },
          "indices": 4,
          "material": 0,
          "mode": 4
        }
      ]
    },
    {
      "name": "Object_1",
      "primitives": [
        {
          "attributes": {
            "NORMAL": 6,
            "POSITION": 5,
            "TANGENT": 7,
            "TEXCOORD_0": 8
          },
          "indices": 9,
          "material": 0,
          "mode": 4
        }
      ]
    },
    {
      "name": "Object_2",
      "primitives": [
        {
          "attributes": {
            "NORMAL": 11,
            "POSITION": 10,
            "TANGENT": 12,
            "TEXCOORD_0": 13
          },
          "indices": 14,
          "material": 0,
          "mode": 4
        }
      ]
    },
    {
      "name": "Object_3",
      "primitives": [
        {
          "attributes": {
            "NORMAL": 16,
            "POSITION": 15,
            "TANGENT": 17,
            "TEXCOORD_0": 18
          },
          "indices": 19,
          "material": 0,
          "mode": 4
        }
      ]
    },
    {
      "name": "Object_4",
      "primitives": [
        {
          "attributes": {
            "NORMAL": 21,
            "POSITION": 20,
            "TANGENT": 22,
            "TEXCOORD_0": 23
          },
          "indices": 24,
          "material": 0,
          "mode": 4
        }
      ]
    }
  ],
  "nodes": [
    {
      "children": [
        1
      ],
      "matrix": [
        0.017151599385178073,
        -2.496342267151541e-18,
        0.0112425261041329,
        0.0,
        0.0112425261041329,
        3.808420109314275e-18,
        -0.017151599385178073,
        0.0,
        0.0,
        0.020507846027612686,
        4.5536565690646316e-18,
        0.0,
        30.636722564697266,
        5.378280697216503e-16,
        -2.4221622943878174,
        1.0
      ],
      "name": "Sketchfab_model"
    },
    {
      "children": [
        2,
        3,
        4,
        5,
        6
      ],
      "name": "export3dcoat.obj.cleaner.materialmerger.gles"
    },
    {
      "mesh": 0,
      "name": "Object_2"
    },
    {
      "mesh": 1,
      "name": "Object_3"
    },
    {
      "mesh": 2,
      "name": "Object_4"
    },
    {
      "mesh": 3,
      "name": "Object_5"
    },
    {
      "mesh": 4,
      "name": "Object_6"
    }
  ],
  "samplers": [
    {
      "magFilter": 9729,
      "minFilter": 9987,
      "wrapS": 10497,
      "wrapT": 10497
    }
  ],
  "scene": 0,
  "scenes": [
    {
      "name": "Sketchfab_Scene",
      "nodes": [
        0
      ]
    }
  ],
  "textures": [
    {
      "sampler": 0,
      "source": 0
    },
    {
      "sampler": 0,
      "source": 1
    },
    {
      "sampler": 0,
      "source": 2
    }
  ]
}
